<svg xmlns="http://www.w3.org/2000/svg" width="232" height="36" viewBox="0 0 232 36"><g><g><g><path fill="#6654f5" d="M65.014 8.87l7.678 18.105h-4.123l-1.637-4.033h-7.575l-1.638 4.033H53.7L61.38 8.87zm.513 10.58l-2.383-5.83-2.379 5.83z"/></g><g><path fill="#6654f5" d="M75.451 8.997h3.634l8.395 11.069V8.997h3.89v17.976h-3.353l-8.676-11.427v11.427h-3.89V8.997"/></g><g><path fill="#6654f5" d="M105.441 8.87l7.678 18.105h-4.12l-1.637-4.033h-7.578l-1.637 4.033H94.13l7.678-18.105zm.513 10.58l-2.38-5.83-2.382 5.83z"/></g><g><path fill="#6654f5" d="M115.879 8.997h3.94v14.381h8.933v3.595h-12.873V8.997"/></g><g><path fill="#6654f5" d="M133.432 19.886l-6.884-10.889h4.608l4.273 7.217 4.351-7.217h4.48l-6.886 10.812v7.164h-3.942v-7.087"/></g><g><path fill="#6654f5" d="M144.587 24.354l2.331-2.799c1.61 1.336 3.302 2.183 5.35 2.183 1.61 0 2.584-.642 2.584-1.695v-.052c0-1-.615-1.514-3.61-2.285-3.61-.925-5.937-1.926-5.937-5.495v-.052c0-3.261 2.611-5.419 6.27-5.419 2.61 0 4.839.822 6.654 2.286l-2.047 2.98c-1.586-1.106-3.148-1.772-4.659-1.772-1.508 0-2.301.693-2.301 1.566v.05c0 1.182.766 1.567 3.863 2.364 3.634.95 5.681 2.26 5.681 5.392v.052c0 3.57-2.71 5.573-6.577 5.573-2.71 0-5.452-.95-7.602-2.877"/></g><g><path fill="#6654f5" d="M165.98 12.644h-5.45V8.997h14.843v3.647h-5.452v14.33h-3.941v-14.33"/></g><g><path fill="#0b0c18" d="M178.902 8.997h1.33v8.32h11.467v-8.32h1.33v17.976h-1.33V18.55h-11.467v8.423h-1.33V8.997"/></g><g><path fill="#0b0c18" d="M198.066 19.5V8.998h1.333v10.375c0 4.237 2.276 6.677 6.064 6.677 3.634 0 5.965-2.208 5.965-6.548V8.997h1.33v10.35c0 5.16-2.995 7.909-7.346 7.909-4.3 0-7.346-2.722-7.346-7.755"/></g><g><path fill="#0b0c18" d="M225.191 8.997c2.023 0 3.66.59 4.659 1.593.742.744 1.152 1.694 1.152 2.824v.051c0 2.44-1.59 3.673-3.046 4.263 2.15.565 4.044 1.798 4.044 4.29v.05c0 3.005-2.56 4.905-6.423 4.905h-7.783V8.997zm-.154 8.298c2.687 0 4.608-1.311 4.608-3.7v-.051c0-1.978-1.613-3.314-4.478-3.314h-6.04v7.065zm.588 8.446c3.073 0 5.018-1.412 5.018-3.673v-.05c0-2.21-1.92-3.493-5.452-3.493h-6.064v7.216z"/></g><g><path fill="#f2b347" d="M8.465 18.461a3.032 3.032 0 0 1 1.498-2.337V12.1c0-1.152-.931-2.085-2.078-2.085H2.077A2.081 2.081 0 0 0 0 12.1v9.956l8.465-3.595"/></g><g><path fill="#f2b347" d="M25.86 20.822c.334.194.626.449.863.752l9.083-3.93V8.278c0-1.152-.93-2.085-2.08-2.085h-5.805a2.08 2.08 0 0 0-2.077 2.085v8.39h.016v4.154"/></g><g><path fill="#6654f5" d="M21.425 24.282l-7.858-3.31a3.02 3.02 0 0 1-2.086.84c-.742 0-1.41-.275-1.937-.716L0 25.149v8.317a2.384 2.384 0 0 0 2.38 2.389h31.044a2.387 2.387 0 0 0 2.382-2.39v-12.72l-8.605 3.724a3.037 3.037 0 0 1-2.86 2.042c-1.395 0-2.555-.946-2.916-2.229z"/></g><g><path fill="#f2b347" d="M14.476 18.267l7.577 3.192c.222-.253.478-.467.77-.637V2.085A2.08 2.08 0 0 0 20.744 0H14.94c-1.15 0-2.08.934-2.08 2.085v13.964a3.04 3.04 0 0 1 1.616 2.218"/></g></g></g></svg>